<?xml version="1.0" encoding="UTF-8" standalone="no"?>
<!DOCTYPE svg PUBLIC "-//W3C//DTD SVG 1.1//EN"
 "http://www.w3.org/Graphics/SVG/1.1/DTD/svg11.dtd">
<!-- Generated by graphviz version 2.40.1 (20161225.0304)
 -->
<!-- Title: deplacy Pages: 1 -->
<svg width="345pt" height="259pt"
 viewBox="0.00 0.00 345.00 259.00" xmlns="http://www.w3.org/2000/svg" xmlns:xlink="http://www.w3.org/1999/xlink">
<g id="graph0" class="graph" transform="scale(1 1) rotate(0) translate(4 255)">
<title>deplacy</title>
<polygon fill="#ffffff" stroke="transparent" points="-4,4 -4,-255 341,-255 341,4 -4,4"/>
<!-- r2 -->
<g id="node1" class="node">
<title>r2</title>
<text text-anchor="middle" x="122.5" y="-243" font-family="sans-serif" font-size="10.00" fill="#000000">ROOT</text>
</g>
<!-- x2 -->
<g id="node2" class="node">
<title>x2</title>
<text text-anchor="middle" x="122.5" y="-181.3" font-family="Times,serif" font-size="14.00" fill="#000000">พวกเราใช้ภาษาไทย</text>
</g>
<!-- r2&#45;&gt;x2 -->
<g id="edge1" class="edge">
<title>r2&#45;&gt;x2</title>
<path fill="none" stroke="#c0c0c0" d="M122.5,-239.9167C122.5,-233.7509 122.5,-223.3543 122.5,-213.2555"/>
<polygon fill="#c0c0c0" stroke="#c0c0c0" points="126.0001,-213.0291 122.5,-203.0291 119.0001,-213.0291 126.0001,-213.0291"/>
</g>
<!-- w -->
<g id="node3" class="node">
<title>w</title>
<polygon fill="none" stroke="#000000" stroke-width="0" points="60,-.5 60,-46.5 337,-46.5 337,-.5 60,-.5"/>
<text text-anchor="middle" x="111" y="-31.3" font-family="Times,serif" font-size="14.00" fill="#000000">พวกเรา</text>
<polyline fill="none" stroke="#000000" stroke-width="0" points="60,-23.5 162,-23.5 "/>
<text text-anchor="middle" x="111" y="-8.3" font-family="Times,serif" font-size="14.00" fill="#000000">NOUN</text>
<polyline fill="none" stroke="#000000" stroke-width="0" points="162,-.5 162,-46.5 "/>
<text text-anchor="middle" x="191.5" y="-31.3" font-family="Times,serif" font-size="14.00" fill="#000000">ใช้</text>
<polyline fill="none" stroke="#000000" stroke-width="0" points="162,-23.5 221,-23.5 "/>
<text text-anchor="middle" x="191.5" y="-8.3" font-family="Times,serif" font-size="14.00" fill="#000000">VERB</text>
<polyline fill="none" stroke="#000000" stroke-width="0" points="221,-.5 221,-46.5 "/>
<text text-anchor="middle" x="279" y="-31.3" font-family="Times,serif" font-size="14.00" fill="#000000">ภาษาไทย</text>
<polyline fill="none" stroke="#000000" stroke-width="0" points="221,-23.5 337,-23.5 "/>
<text text-anchor="middle" x="279" y="-8.3" font-family="Times,serif" font-size="14.00" fill="#000000">PROPN</text>
</g>
<!-- x2&#45;&gt;w -->
<g id="edge2" class="edge">
<title>x2&#45;&gt;w:1</title>
<path fill="none" stroke="#c0c0c0" d="M119.8962,-166.6729C116.6426,-142.2703 111.4024,-97.4461 110.6035,-56.7442"/>
<polygon fill="#c0c0c0" stroke="#c0c0c0" points="114.101,-56.4641 110.5,-46.5 107.1013,-56.5349 114.101,-56.4641"/>
<text text-anchor="middle" x="132" y="-109.5" font-family="sans-serif" font-size="10.00" fill="#000000">nsubj</text>
</g>
<!-- x1 -->
<g id="node4" class="node">
<title>x1</title>
<text text-anchor="middle" x="239.5" y="-108.3" font-family="Times,serif" font-size="14.00" fill="#000000">ใช้ภาษาไทย</text>
</g>
<!-- x2&#45;&gt;x1 -->
<g id="edge3" class="edge">
<title>x2&#45;&gt;x1</title>
<path fill="none" stroke="#c0c0c0" d="M151.4214,-166.9551C166.609,-157.479 185.4063,-145.7508 201.7301,-135.5658"/>
<polygon fill="#c0c0c0" stroke="#c0c0c0" points="203.8745,-138.3533 210.5059,-130.0904 200.1691,-132.4145 203.8745,-138.3533"/>
</g>
<!-- x1&#45;&gt;w -->
<g id="edge4" class="edge">
<title>x1&#45;&gt;w:2</title>
<path fill="none" stroke="#c0c0c0" d="M216.6246,-93.8831C206.5798,-84.1812 196.2716,-71.2498 192.7592,-56.7599"/>
<polygon fill="#c0c0c0" stroke="#c0c0c0" points="196.1922,-55.9991 191.5,-46.5 189.2443,-56.8519 196.1922,-55.9991"/>
</g>
<!-- x1&#45;&gt;w -->
<g id="edge5" class="edge">
<title>x1&#45;&gt;w:3</title>
<path fill="none" stroke="#c0c0c0" d="M257.861,-93.9895C266.4047,-84.0198 275.35,-70.7751 278.4041,-56.5106"/>
<polygon fill="#c0c0c0" stroke="#c0c0c0" points="281.8909,-56.8215 279.5,-46.5 274.9325,-56.0597 281.8909,-56.8215"/>
<text text-anchor="middle" x="284" y="-68" font-family="sans-serif" font-size="10.00" fill="#000000">obj</text>
</g>
</g>
</svg>
